<svg width="76" height="88" viewBox="0 0 76 88" fill="none" xmlns="http://www.w3.org/2000/svg">
<g id="a" clip-path="url(#clip0_155_3186)">
<g id="Group">
<path id="Vector" d="M41.62 43.1602L33.68 39.5602L33.71 36.7302C33.71 34.8202 32.03 33.1902 28.67 31.8602C26.34 30.9402 23.79 30.4902 21.01 30.4902C18.23 30.4902 15.68 30.9502 13.35 31.8602C9.99 33.2202 8.31 34.8402 8.31 36.7302V73.7702C8.31 75.6802 9.99 77.3102 13.35 78.6402C15.68 79.5602 18.23 80.0102 21.01 80.0102C23.79 80.0102 26.34 79.5502 28.67 78.6402C32.03 77.2802 33.71 75.6602 33.71 73.7702V63.7802H34.13L42.04 67.5302V73.7702C42.04 78.8502 38.89 82.6902 32.59 85.3002C29.07 86.7702 25.21 87.5102 21.02 87.5102C16.83 87.5102 12.97 86.7702 9.45 85.3002C3.15 82.6902 0 78.8402 0 73.7702V36.7302C0 31.6502 3.15 27.8102 9.45 25.2002C12.97 23.7302 16.83 22.9902 21.02 22.9902C25.21 22.9902 29.07 23.7302 32.59 25.2002C38.89 27.8102 42.04 31.6502 42.04 36.7302V43.1702H41.62V43.1602Z" fill="#81FE88"/>
<path id="Vector_2" d="M42.03 67.5194C42.03 67.5194 34.86 64.4194 33.68 60.8594L33.71 65.1794L42.03 67.5194Z" fill="#81FE88"/>
</g>
<g id="Group_2">
<path id="Vector_3" d="M33.56 44.84L41.5 48.44L41.47 51.27C41.47 53.18 43.15 54.81 46.51 56.14C48.84 57.06 51.39 57.51 54.17 57.51C56.94 57.51 59.5 57.05 61.83 56.14C65.19 54.78 66.87 53.16 66.87 51.27V14.23C66.87 12.32 65.19 10.69 61.83 9.36C59.5 8.44 56.95 7.99 54.17 7.99C51.4 7.99 48.84 8.45 46.51 9.36C43.15 10.72 41.47 12.34 41.47 14.23V24.22H41.05L33.14 20.47V14.23C33.14 9.15 36.29 5.31 42.59 2.7C46.12 1.24 49.98 0.5 54.16 0.5C58.34 0.5 62.21 1.24 65.73 2.71C72.03 5.32 75.18 9.16 75.18 14.24V51.27C75.18 56.35 72.03 60.19 65.73 62.8C62.21 64.27 58.35 65.01 54.16 65.01C49.97 65.01 46.11 64.27 42.59 62.8C36.29 60.19 33.14 56.35 33.14 51.27V44.83H33.56V44.84Z" fill="#81FE88"/>
<path id="Vector_4" d="M33.15 20.4805C33.15 20.4805 40.32 23.5805 41.5 27.1405L41.47 22.8205L33.15 20.4805Z" fill="#81FE88"/>
</g>
</g>
<defs>
<clipPath id="clip0_155_3186">
<rect width="75.18" height="87" fill="white" transform="translate(0 0.5)"/>
</clipPath>
</defs>
</svg>
